<svg xmlns="http://www.w3.org/2000/svg" xmlns:xlink="http://www.w3.org/1999/xlink" xml:space="preserve" style="fill-rule:evenodd;clip-rule:evenodd;stroke-linejoin:round;stroke-miterlimit:2" viewBox="0 0 1701 749">
  <defs>
    <path id="reuse-0" d="M2166.49 1073.95c0-29.56-26.82-53.57-59.86-53.57H525.57c-33.036 0-59.857 24.01-59.857 53.57v562.48c0 29.57 26.821 53.57 59.857 53.57h1581.06c33.04 0 59.86-24 59.86-53.57v-562.48Z" style="fill:#ffcd3f"/>
    <path id="reuse-1" d="M1100.004 1557.244h78.703l-50.743 132.759h-78.703zM970.558 1557.244h78.702l-50.742 132.759h-78.703zM1358.895 1557.244h78.703l-50.742 132.759h-78.703zM1229.45 1557.244h78.702l-50.743 132.759h-78.703z"/>
    <path id="reuse-2" d="M2123.585 1557.244h78.703l-50.743 132.759h-78.703zM1994.137 1557.244h78.703l-50.743 132.759h-78.702z"/>
    <path id="reuse-3" d="M1119.128 1020.382h78.703l-50.743 132.759h-78.703zM989.682 1020.382h78.702l-50.742 132.759h-78.703zM1378.02 1020.382h78.702l-50.742 132.759h-78.703zM1248.573 1020.382h78.703l-50.743 132.759h-78.703z"/>
    <path id="reuse-4" d="M2142.709 1020.382h78.703l-50.743 132.759h-78.703zM2013.261 1020.382h78.703l-50.743 132.759h-78.702z"/>
    <path id="reuse-5" d="M.388-.556a.2.2 0 0 1 .141.048c.035.031.053.082.053.152V0H.433v-.319a.15.15 0 0 0-.021-.088c-.014-.02-.036-.03-.067-.03-.045 0-.076.015-.093.046a.285.285 0 0 0-.025.134V0H.078v-.546h.114l.02.07H.22a.149.149 0 0 1 .072-.061.238.238 0 0 1 .096-.019Z" style="fill-rule:nonzero"/>
    <path id="reuse-6" d="M.383-.556a.254.254 0 0 1 .05.004l-.011.14-.021-.004-.023-.001a.224.224 0 0 0-.073.013.122.122 0 0 0-.056.044.133.133 0 0 0-.022.082V0H.078v-.546h.113l.022.092H.22a.226.226 0 0 1 .066-.072c.028-.02.06-.03.097-.03Z" style="fill-rule:nonzero"/>
    <path id="reuse-7" d="M.3.01C.219.01.156-.012.112-.057.067-.102.045-.173.045-.27c0-.067.011-.121.034-.163a.216.216 0 0 1 .094-.093.313.313 0 0 1 .14-.03.393.393 0 0 1 .17.037l-.044.115a.866.866 0 0 0-.065-.023.22.22 0 0 0-.061-.009c-.077 0-.116.055-.116.165 0 .055.01.095.031.121a.1.1 0 0 0 .085.039.237.237 0 0 0 .083-.013.3.3 0 0 0 .07-.034v.127A.223.223 0 0 1 .395 0 .364.364 0 0 1 .3.01Z" style="fill-rule:nonzero"/>
    <path id="reuse-8" d="M.574-.274c0 .091-.024.161-.072.21A.257.257 0 0 1 .308.01a.277.277 0 0 1-.136-.033.24.24 0 0 1-.093-.096.323.323 0 0 1-.034-.155c0-.091.024-.16.071-.209a.257.257 0 0 1 .195-.073c.051 0 .097.011.136.033a.24.24 0 0 1 .093.096.315.315 0 0 1 .034.153Zm-.377 0c0 .054.009.095.027.122.017.028.046.042.086.042.039 0 .068-.014.086-.042a.233.233 0 0 0 .026-.122.233.233 0 0 0-.026-.122C.378-.423.349-.436.309-.436c-.039 0-.068.013-.085.04a.223.223 0 0 0-.027.122Z" style="fill-rule:nonzero"/>
    <path id="reuse-9" d="M.308-.109a.39.39 0 0 0 .094-.017v.111A.32.32 0 0 1 .265.01a.214.214 0 0 1-.087-.016.125.125 0 0 1-.061-.055.222.222 0 0 1-.023-.11v-.263H.023v-.063l.082-.05.043-.115h.095v.116h.153v.112H.243v.263c0 .021.006.036.018.046a.067.067 0 0 0 .047.016Z" style="fill-rule:nonzero"/>
  </defs>
  <g transform="matrix(1 0 0 1.11737 -465.713 -1140.145)">
    <use xlink:href="#reuse-0" style="fill:#ffcd3f"/>
    <clipPath id="a">
      <use xlink:href="#reuse-0"/>
    </clipPath>
    <g clip-path="url(#a)">
      <path d="M582.22 1557.244h78.703l-50.742 132.759h-78.703zM452.774 1557.244h78.703l-50.743 132.759h-78.702zM841.112 1557.244h78.703l-50.743 132.759H790.37zM711.666 1557.244h78.703l-50.743 132.759h-78.703zM1100.004 1557.244h78.703l-50.743 132.759h-78.703zM970.558 1557.244h78.702l-50.742 132.759h-78.703zM1358.895 1557.244h78.703l-50.742 132.759h-78.703zM1229.45 1557.244h78.702l-50.743 132.759h-78.703z"/>
      <use xlink:href="#reuse-1"/>
      <path d="M1100.004 1557.244h78.703l-50.743 132.759h-78.703zM970.558 1557.244h78.702l-50.742 132.759h-78.703zM1358.895 1557.244h78.703l-50.742 132.759h-78.703zM1229.45 1557.244h78.702l-50.743 132.759h-78.703zM582.22 1557.244h78.703l-50.742 132.759h-78.703zM452.774 1557.244h78.703l-50.743 132.759h-78.702zM841.112 1557.244h78.703l-50.743 132.759H790.37zM711.666 1557.244h78.703l-50.743 132.759h-78.703z"/>
      <use xlink:href="#reuse-1"/>
      <use xlink:href="#reuse-1"/>
      <path d="M1100.004 1557.244h78.703l-50.743 132.759h-78.703zM970.558 1557.244h78.702l-50.742 132.759h-78.703zM1358.895 1557.244h78.703l-50.742 132.759h-78.703zM1229.45 1557.244h78.702l-50.743 132.759h-78.703zM1605.805 1557.244h78.703l-50.742 132.759h-78.703zM1476.358 1557.244h78.703l-50.743 132.759h-78.703zM1864.7 1557.244h78.703l-50.743 132.759h-78.703zM1735.253 1557.244h78.703l-50.743 132.759h-78.703zM2123.585 1557.244h78.703l-50.743 132.759h-78.703zM1994.137 1557.244h78.703l-50.743 132.759h-78.702z"/>
      <use xlink:href="#reuse-2"/>
      <use xlink:href="#reuse-2"/>
      <g>
        <path d="M601.345 1020.382h78.702l-50.742 132.759h-78.703zM471.898 1020.382h78.703l-50.743 132.759h-78.702zM860.236 1020.382h78.703l-50.743 132.759h-78.703zM730.79 1020.382h78.703l-50.743 132.759h-78.703zM1119.128 1020.382h78.703l-50.743 132.759h-78.703zM989.682 1020.382h78.702l-50.742 132.759h-78.703zM1378.02 1020.382h78.702l-50.742 132.759h-78.703zM1248.573 1020.382h78.703l-50.743 132.759h-78.703z"/>
        <use xlink:href="#reuse-3"/>
        <path d="M1119.128 1020.382h78.703l-50.743 132.759h-78.703zM989.682 1020.382h78.702l-50.742 132.759h-78.703zM1378.02 1020.382h78.702l-50.742 132.759h-78.703zM1248.573 1020.382h78.703l-50.743 132.759h-78.703zM601.345 1020.382h78.702l-50.742 132.759h-78.703zM471.898 1020.382h78.703l-50.743 132.759h-78.702zM860.236 1020.382h78.703l-50.743 132.759h-78.703zM730.79 1020.382h78.703l-50.743 132.759h-78.703z"/>
        <use xlink:href="#reuse-3"/>
        <use xlink:href="#reuse-3"/>
        <path d="M1119.128 1020.382h78.703l-50.743 132.759h-78.703zM989.682 1020.382h78.702l-50.742 132.759h-78.703zM1378.02 1020.382h78.702l-50.742 132.759h-78.703zM1248.573 1020.382h78.703l-50.743 132.759h-78.703zM1624.93 1020.382h78.702l-50.742 132.759h-78.703zM1495.482 1020.382h78.703l-50.743 132.759h-78.703zM1883.824 1020.382h78.703l-50.743 132.759h-78.703zM1754.377 1020.382h78.703l-50.743 132.759h-78.703zM2142.709 1020.382h78.703l-50.743 132.759h-78.703zM2013.261 1020.382h78.703l-50.743 132.759h-78.702z"/>
        <use xlink:href="#reuse-4"/>
        <use xlink:href="#reuse-4"/>
      </g>
      <g>
        <path d="M.671-.714v.462a.285.285 0 0 1-.032.134.235.235 0 0 1-.099.093.354.354 0 0 1-.165.035C.28.01.208-.014.159-.063a.256.256 0 0 1-.074-.191v-.46h.151v.437c0 .059.012.101.036.124.024.024.06.036.107.036.049 0 .085-.013.108-.039C.509-.182.52-.223.52-.278v-.436h.151Z" style="fill-rule:nonzero" transform="matrix(96.34 0 -45.1398 117.9936 1148.575 1444.868)"/>
        <use xlink:href="#reuse-5" style="fill-rule:nonzero" transform="matrix(96.34 0 -45.1398 117.9936 1221.405 1444.868)"/>
        <path d="M.251.01a.183.183 0 0 1-.149-.072C.064-.109.045-.179.045-.272c0-.093.019-.164.058-.212a.186.186 0 0 1 .152-.072c.039 0 .072.008.097.023a.182.182 0 0 1 .06.057h.005L.41-.523a.421.421 0 0 1-.004-.062V-.76h.149V0H.441L.412-.071H.406A.175.175 0 0 1 .251.01Zm.052-.119c.041 0 .069-.012.086-.037a.196.196 0 0 0 .027-.109v-.016a.254.254 0 0 0-.024-.122C.375-.421.345-.435.301-.435a.088.088 0 0 0-.077.042.224.224 0 0 0-.028.123c0 .053.009.093.028.12a.091.091 0 0 0 .079.041Z" style="fill-rule:nonzero" transform="matrix(96.34 0 -45.1398 117.9936 1284.7 1444.868)"/>
        <path d="M.303-.556c.075 0 .135.021.179.064.044.043.066.105.066.184v.072H.196a.139.139 0 0 0 .038.099.13.13 0 0 0 .098.036.408.408 0 0 0 .185-.043v.115A.469.469 0 0 1 .325.01.319.319 0 0 1 .18-.021a.22.22 0 0 1-.099-.092.305.305 0 0 1-.036-.156c0-.063.011-.116.033-.159a.21.21 0 0 1 .09-.096.28.28 0 0 1 .135-.032Zm.001.106a.097.097 0 0 0-.072.028c-.019.019-.03.048-.033.087h.209a.136.136 0 0 0-.026-.082C.365-.439.339-.45.304-.45Z" style="fill-rule:nonzero" transform="matrix(96.34 0 -45.1398 117.9936 1345.684 1444.868)"/>
        <use xlink:href="#reuse-6" style="fill-rule:nonzero" transform="matrix(96.34 0 -45.1398 117.9936 1402.62 1444.868)"/>
        <use xlink:href="#reuse-7" style="fill-rule:nonzero" transform="matrix(96.34 0 -45.1398 117.9936 1471.408 1444.868)"/>
        <use xlink:href="#reuse-8" style="fill-rule:nonzero" transform="matrix(96.34 0 -45.1398 117.9936 1520.926 1444.868)"/>
        <use xlink:href="#reuse-5" style="fill-rule:nonzero" transform="matrix(96.34 0 -45.1398 117.9936 1580.56 1444.868)"/>
        <path d="M.459-.162c0 .055-.019.098-.058.127A.286.286 0 0 1 .226.01a.424.424 0 0 1-.18-.032v-.123a.623.623 0 0 0 .095.033.354.354 0 0 0 .09.013c.029 0 .049-.004.062-.013.013-.009.019-.02.019-.034a.043.043 0 0 0-.007-.025.098.098 0 0 0-.033-.025 1.143 1.143 0 0 0-.078-.036.458.458 0 0 1-.084-.044.135.135 0 0 1-.049-.052.156.156 0 0 1-.016-.076c0-.051.02-.089.059-.114a.29.29 0 0 1 .157-.038.437.437 0 0 1 .192.043l-.045.107a1.271 1.271 0 0 0-.076-.029.258.258 0 0 0-.073-.011c-.044 0-.066.012-.066.036 0 .009.003.016.009.023a.09.09 0 0 0 .032.023l.073.032a.774.774 0 0 1 .081.039c.023.014.04.031.053.052a.157.157 0 0 1 .018.079Z" style="fill-rule:nonzero" transform="matrix(96.34 0 -45.1398 117.9936 1643.856 1444.868)"/>
        <use xlink:href="#reuse-9" style="fill-rule:nonzero" transform="matrix(96.34 0 -45.1398 117.9936 1691.737 1444.868)"/>
        <use xlink:href="#reuse-6" style="fill-rule:nonzero" transform="matrix(96.34 0 -45.1398 117.9936 1733.549 1444.868)"/>
        <path d="M.579-.546V0H.465l-.02-.07H.437a.15.15 0 0 1-.071.061.247.247 0 0 1-.097.019.2.2 0 0 1-.141-.048C.093-.069.075-.12.075-.19v-.356h.149v.319a.15.15 0 0 0 .021.088c.014.02.036.03.067.03.045 0 .076-.016.093-.047A.28.28 0 0 0 .43-.289v-.257h.149Z" style="fill-rule:nonzero" transform="matrix(96.34 0 -45.1398 117.9936 1777.287 1444.868)"/>
        <use xlink:href="#reuse-7" style="fill-rule:nonzero" transform="matrix(96.34 0 -45.1398 117.9936 1840.583 1444.868)"/>
        <use xlink:href="#reuse-9" style="fill-rule:nonzero" transform="matrix(96.34 0 -45.1398 117.9936 1890.101 1444.868)"/>
        <path d="M.153-.76c.022 0 .041.005.057.015.016.011.024.03.024.058 0 .027-.008.046-.024.057a.098.098 0 0 1-.057.016.094.094 0 0 1-.057-.016C.08-.641.072-.66.072-.687c0-.028.008-.047.024-.058A.1.1 0 0 1 .153-.76Zm.074.214V0H.078v-.546h.149Z" style="fill-rule:nonzero" transform="matrix(96.34 0 -45.1398 117.9936 1931.913 1444.868)"/>
        <use xlink:href="#reuse-8" style="fill-rule:nonzero" transform="matrix(96.34 0 -45.1398 117.9936 1961.297 1444.868)"/>
        <use xlink:href="#reuse-5" style="fill-rule:nonzero" transform="matrix(96.34 0 -45.1398 117.9936 2020.931 1444.868)"/>
      </g>
    </g>
  </g>
</svg>
